<svg width="22" height="25" viewBox="0 0 22 25" fill="none" xmlns="http://www.w3.org/2000/svg">
<g id="Group">
<path id="Vector" d="M15.6295 0.155762C15.9365 0.155762 16.2308 0.277689 16.4479 0.49472C16.6649 0.711751 16.7868 1.00611 16.7868 1.31304V2.47031H19.1014C19.7152 2.47031 20.3039 2.71417 20.738 3.14823C21.1721 3.58229 21.4159 4.17101 21.4159 4.78486V18.6722C21.4159 19.286 21.1721 19.8747 20.738 20.3088C20.3039 20.7429 19.7152 20.9867 19.1014 20.9867H2.89951C2.28565 20.9867 1.69694 20.7429 1.26288 20.3088C0.828815 19.8747 0.584961 19.286 0.584961 18.6722V4.78486C0.584961 4.17101 0.828815 3.58229 1.26288 3.14823C1.69694 2.71417 2.28565 2.47031 2.89951 2.47031H5.21406V1.31304C5.21406 1.00611 5.33599 0.711751 5.55302 0.49472C5.77005 0.277689 6.06441 0.155762 6.37134 0.155762C6.67827 0.155762 6.97262 0.277689 7.18965 0.49472C7.40668 0.711751 7.52861 1.00611 7.52861 1.31304V2.47031H14.4723V1.31304C14.4723 1.00611 14.5942 0.711751 14.8112 0.49472C15.0283 0.277689 15.3226 0.155762 15.6295 0.155762ZM19.1014 4.78486H2.89951V18.6722H19.1014V4.78486ZM14.2686 7.53802C14.4868 7.32721 14.7792 7.21057 15.0826 7.2132C15.386 7.21584 15.6763 7.33755 15.8909 7.55212C16.1054 7.76669 16.2272 8.05694 16.2298 8.36038C16.2324 8.66381 16.1158 8.95614 15.905 9.17441L10.1857 14.8948C10.0772 15.0035 9.94827 15.0897 9.80639 15.1485C9.66451 15.2073 9.51243 15.2375 9.35884 15.2375C9.20526 15.2375 9.05318 15.2073 8.9113 15.1485C8.76942 15.0897 8.64052 15.0035 8.53197 14.8948L6.08549 12.446C5.87468 12.2278 5.75804 11.9354 5.76067 11.632C5.76331 11.3286 5.88502 11.0383 6.09959 10.8237C6.31416 10.6092 6.60441 10.4875 6.90785 10.4848C7.21128 10.4822 7.50361 10.5988 7.72188 10.8096L9.35942 12.446L14.2686 7.53802Z" fill="white"/>
</g>
</svg>
