<svg width="20" height="20" viewBox="0 0 20 20" fill="none" xmlns="http://www.w3.org/2000/svg">
<g id="fluent:edit-12-regular">
<path id="Vector" d="M17.4054 2.60002C17.1092 2.30375 16.7575 2.06874 16.3704 1.9084C15.9834 1.74805 15.5685 1.66553 15.1496 1.66553C14.7306 1.66553 14.3158 1.74805 13.9287 1.9084C13.5416 2.06874 13.19 2.30375 12.8937 2.60002L11.9771 3.51835C11.9312 3.55495 11.8893 3.59629 11.8521 3.64169L2.75206 12.7434C2.63571 12.8594 2.55627 13.0073 2.52373 13.1684L1.68373 17.335C1.65632 17.4697 1.66265 17.609 1.70214 17.7407C1.74163 17.8723 1.81306 17.9921 1.91007 18.0895C2.00708 18.1868 2.12666 18.2586 2.25815 18.2986C2.38964 18.3385 2.52897 18.3453 2.66373 18.3184L6.83706 17.485C6.99814 17.4525 7.14601 17.373 7.26206 17.2567L17.4054 7.11335C17.7017 6.81713 17.9367 6.46544 18.097 6.07839C18.2574 5.69133 18.3399 5.27647 18.3399 4.85752C18.3399 4.43856 18.2574 4.02371 18.097 3.63665C17.9367 3.24959 17.7017 2.89791 17.4054 2.60169M12.5037 5.35002L14.6587 7.50502L6.26206 15.9L3.5654 16.44L4.10706 13.7467L12.5037 5.35002ZM15.8371 6.32669L13.6821 4.17002L14.0721 3.78002C14.2128 3.63575 14.3808 3.52086 14.5663 3.44199C14.7518 3.36313 14.9511 3.32186 15.1527 3.32059C15.3543 3.31932 15.5541 3.35806 15.7406 3.43457C15.9271 3.51108 16.0965 3.62384 16.2391 3.76632C16.3817 3.90879 16.4946 4.07815 16.5712 4.26457C16.6479 4.451 16.6868 4.65078 16.6857 4.85235C16.6845 5.05391 16.6434 5.25325 16.5647 5.43881C16.486 5.62437 16.3712 5.79247 16.2271 5.93335L15.8371 6.32669Z" fill="#616161"/>
</g>
</svg>
