<svg width="17" height="17" viewBox="0 0 17 17" fill="none" xmlns="http://www.w3.org/2000/svg">
<g id="Group">
<path id="Vector" fill-rule="evenodd" clip-rule="evenodd" d="M5.87438 9.00075C5.74159 8.86792 5.66699 8.68778 5.66699 8.49996C5.66699 8.31213 5.74159 8.132 5.87438 7.99917L9.88142 3.99212C9.94677 3.92447 10.0249 3.87051 10.1113 3.83339C10.1978 3.79626 10.2907 3.77672 10.3848 3.77591C10.4788 3.77509 10.5721 3.79301 10.6591 3.82863C10.7462 3.86424 10.8253 3.91684 10.8918 3.98335C10.9583 4.04985 11.0109 4.12894 11.0465 4.21599C11.0821 4.30304 11.1 4.39632 11.0992 4.49037C11.0984 4.58442 11.0789 4.67737 11.0417 4.76379C11.0046 4.85021 10.9507 4.92837 10.883 4.99371L7.37676 8.49996L10.883 12.0062C11.012 12.1398 11.0834 12.3187 11.0818 12.5044C11.0802 12.6902 11.0057 12.8678 10.8744 12.9992C10.743 13.1305 10.5654 13.205 10.3797 13.2066C10.1939 13.2082 10.015 13.1368 9.88142 13.0078L5.87438 9.00075Z" fill="black"/>
</g>
</svg>
