<svg width="28" height="28" viewBox="0 0 28 28" fill="none" xmlns="http://www.w3.org/2000/svg">
<g id="jam:write">
<path id="Vector" d="M9.00634 19.1989L11.0608 18.6062L23.431 6.08789C23.5286 5.98791 23.5829 5.85355 23.5823 5.71384C23.5816 5.57414 23.526 5.4403 23.4275 5.34123L22.6867 4.59223C22.6388 4.54304 22.5816 4.50388 22.5184 4.47703C22.4553 4.45018 22.3874 4.43619 22.3187 4.43586C22.2501 4.43553 22.1821 4.44888 22.1187 4.47513C22.0552 4.50138 21.9977 4.53999 21.9493 4.58873L9.61184 17.0744L9.00634 19.1989ZM24.1532 3.10823L24.894 3.85839C25.916 4.89323 25.9253 6.56273 24.9127 7.58706L12.1657 20.4881L7.77434 21.7527C7.64159 21.79 7.50278 21.8008 7.36585 21.7845C7.22892 21.7682 7.09655 21.725 6.97629 21.6575C6.85604 21.59 6.75026 21.4995 6.66499 21.3911C6.57972 21.2828 6.51664 21.1587 6.47934 21.0259C6.42212 20.8334 6.42131 20.6285 6.47701 20.4356L7.75451 15.9556L20.4677 3.08839C20.7094 2.84498 20.9972 2.65213 21.3143 2.52111C21.6313 2.39008 21.9713 2.32349 22.3143 2.32523C22.6574 2.32697 22.9967 2.39699 23.3124 2.53123C23.6281 2.66546 23.9139 2.86238 24.1532 3.10823ZM10.7143 4.45339C11.293 4.45339 11.762 4.92823 11.762 5.51389C11.7629 5.65234 11.7366 5.78961 11.6844 5.91786C11.6322 6.0461 11.5553 6.16281 11.458 6.2613C11.3607 6.35979 11.2449 6.43814 11.1173 6.49186C10.9897 6.54559 10.8528 6.57363 10.7143 6.57439H6.52367C5.36634 6.57439 4.42834 7.52406 4.42834 8.69423V21.4179C4.42834 22.5892 5.36634 23.5389 6.52367 23.5389H19.0957C20.253 23.5389 21.1922 22.5892 21.1922 21.4179V17.1771C21.1922 16.5914 21.6612 16.1166 22.2398 16.1166C22.8185 16.1166 23.2875 16.5914 23.2875 17.1782V21.4179C23.2875 23.7606 21.4103 25.6599 19.0957 25.6599H6.52367C4.20901 25.6599 2.33301 23.7606 2.33301 21.4179V8.69423C2.33301 6.35273 4.20901 4.45339 6.52367 4.45339H10.7143Z" fill="#616161"/>
</g>
</svg>
