<svg width="32" height="32" viewBox="0 0 32 32" fill="none" xmlns="http://www.w3.org/2000/svg">
<g id="material-symbols:menu-rounded">
<path id="Vector" d="M5.33334 24C4.95556 24 4.63912 23.872 4.384 23.616C4.12889 23.36 4.00089 23.0436 4 22.6667C3.99912 22.2898 4.12712 21.9733 4.384 21.7173C4.64089 21.4613 4.95734 21.3333 5.33334 21.3333H26.6667C27.0444 21.3333 27.3613 21.4613 27.6173 21.7173C27.8733 21.9733 28.0009 22.2898 28 22.6667C27.9991 23.0436 27.8711 23.3604 27.616 23.6173C27.3609 23.8742 27.0444 24.0018 26.6667 24H5.33334ZM5.33334 17.3333C4.95556 17.3333 4.63912 17.2053 4.384 16.9493C4.12889 16.6933 4.00089 16.3769 4 16C3.99912 15.6231 4.12712 15.3067 4.384 15.0507C4.64089 14.7947 4.95734 14.6667 5.33334 14.6667H26.6667C27.0444 14.6667 27.3613 14.7947 27.6173 15.0507C27.8733 15.3067 28.0009 15.6231 28 16C27.9991 16.3769 27.8711 16.6938 27.616 16.9507C27.3609 17.2076 27.0444 17.3351 26.6667 17.3333H5.33334ZM5.33334 10.6667C4.95556 10.6667 4.63912 10.5387 4.384 10.2827C4.12889 10.0267 4.00089 9.71022 4 9.33333C3.99912 8.95644 4.12712 8.64 4.384 8.384C4.64089 8.128 4.95734 8 5.33334 8H26.6667C27.0444 8 27.3613 8.128 27.6173 8.384C27.8733 8.64 28.0009 8.95644 28 9.33333C27.9991 9.71022 27.8711 10.0271 27.616 10.284C27.3609 10.5409 27.0444 10.6684 26.6667 10.6667H5.33334Z" fill="black"/>
</g>
</svg>
