<svg width="17" height="17" viewBox="0 0 17 17" fill="none" xmlns="http://www.w3.org/2000/svg">
<g id="material-symbols:check-rounded">
<path id="Vector" d="M6.76552 10.7313L12.7686 4.72813C12.9103 4.58646 13.0756 4.51562 13.2645 4.51562C13.4534 4.51562 13.6186 4.58646 13.7603 4.72813C13.902 4.86979 13.9728 5.03814 13.9728 5.23317C13.9728 5.42819 13.902 5.59631 13.7603 5.7375L7.26136 12.2542C7.11969 12.3958 6.95441 12.4667 6.76552 12.4667C6.57664 12.4667 6.41136 12.3958 6.26969 12.2542L3.22386 9.20833C3.08219 9.06667 3.01419 8.89856 3.01986 8.704C3.02552 8.50944 3.09943 8.3411 3.24157 8.19896C3.38371 8.05682 3.55205 7.98599 3.74661 7.98646C3.94116 7.98693 4.10927 8.05776 4.25094 8.19896L6.76552 10.7313Z" fill="black"/>
</g>
</svg>
