<svg width="37" height="37" viewBox="0 0 37 37" fill="none" xmlns="http://www.w3.org/2000/svg">
<g id="mdi:pets">
<path id="Vector" d="M12.8729 4.62524C14.6921 4.36316 16.6192 6.35191 17.1742 9.09608C17.7292 11.8248 16.7271 14.2607 14.9079 14.5382C13.1042 14.8157 11.1617 12.8269 10.5913 10.0827C10.0209 7.35399 11.0538 4.91816 12.8729 4.62524ZM23.8959 4.62524C25.7304 4.91816 26.7479 7.35399 26.2084 10.0827C25.6225 12.8269 23.6954 14.8157 21.8763 14.5382C20.0417 14.2607 19.0396 11.8248 19.61 9.09608C20.165 6.35191 22.0921 4.36316 23.8959 4.62524ZM4.62502 11.7169C6.38252 10.9615 8.7721 12.3336 10.0209 14.7232C11.1925 17.159 10.7917 19.7182 9.0496 20.4736C7.30752 21.229 4.93335 19.8723 3.71544 17.4519C2.49752 15.0315 2.92919 12.4569 4.62502 11.7169ZM32.375 11.7169C34.0709 12.4569 34.5025 15.0315 33.2846 17.4519C32.0667 19.8723 29.6925 21.229 27.9504 20.4736C26.2084 19.7182 25.8075 17.159 26.9792 14.7232C28.2279 12.3336 30.6175 10.9615 32.375 11.7169ZM29.8004 28.3361C29.8621 29.7852 28.7521 31.3886 27.4263 31.9898C24.6667 33.254 21.3984 30.6332 18.3304 30.6332C15.2625 30.6332 11.9634 33.3619 9.25002 31.9898C7.70835 31.2344 6.6446 29.2302 6.84502 27.5652C7.12252 25.2682 9.8821 24.0348 11.5163 22.3544C13.69 20.1807 15.2317 16.0952 18.3304 16.0952C21.4138 16.0952 23.0479 20.119 25.1292 22.3544C26.8404 24.2352 29.6925 25.8232 29.8004 28.3361Z" fill="#6A0104"/>
</g>
</svg>
