<svg width="20" height="20" viewBox="0 0 20 20" fill="none" xmlns="http://www.w3.org/2000/svg">
<g id="mi:delete">
<path id="Vector" d="M5.83366 3.33317C5.83366 2.89114 6.00925 2.46722 6.32181 2.15466C6.63437 1.8421 7.0583 1.6665 7.50033 1.6665H12.5003C12.9424 1.6665 13.3663 1.8421 13.6788 2.15466C13.9914 2.46722 14.167 2.89114 14.167 3.33317V4.99984H17.5003C17.7213 4.99984 17.9333 5.08763 18.0896 5.24392C18.2459 5.4002 18.3337 5.61216 18.3337 5.83317C18.3337 6.05418 18.2459 6.26615 18.0896 6.42243C17.9333 6.57871 17.7213 6.6665 17.5003 6.6665H16.6095L15.887 16.7848C15.8571 17.2053 15.6689 17.5988 15.3604 17.8861C15.0519 18.1734 14.646 18.3332 14.2245 18.3332H5.77533C5.35378 18.3332 4.94788 18.1734 4.6394 17.8861C4.33091 17.5988 4.14276 17.2053 4.11283 16.7848L3.39199 6.6665H2.50033C2.27931 6.6665 2.06735 6.57871 1.91107 6.42243C1.75479 6.26615 1.66699 6.05418 1.66699 5.83317C1.66699 5.61216 1.75479 5.4002 1.91107 5.24392C2.06735 5.08763 2.27931 4.99984 2.50033 4.99984H5.83366V3.33317ZM7.50033 4.99984H12.5003V3.33317H7.50033V4.99984ZM5.06199 6.6665L5.77616 16.6665H14.2253L14.9395 6.6665H5.06199ZM8.33366 8.33317C8.55467 8.33317 8.76663 8.42097 8.92291 8.57725C9.07919 8.73353 9.16699 8.94549 9.16699 9.1665V14.1665C9.16699 14.3875 9.07919 14.5995 8.92291 14.7558C8.76663 14.912 8.55467 14.9998 8.33366 14.9998C8.11265 14.9998 7.90068 14.912 7.7444 14.7558C7.58812 14.5995 7.50033 14.3875 7.50033 14.1665V9.1665C7.50033 8.94549 7.58812 8.73353 7.7444 8.57725C7.90068 8.42097 8.11265 8.33317 8.33366 8.33317ZM11.667 8.33317C11.888 8.33317 12.1 8.42097 12.2562 8.57725C12.4125 8.73353 12.5003 8.94549 12.5003 9.1665V14.1665C12.5003 14.3875 12.4125 14.5995 12.2562 14.7558C12.1 14.912 11.888 14.9998 11.667 14.9998C11.446 14.9998 11.234 14.912 11.0777 14.7558C10.9215 14.5995 10.8337 14.3875 10.8337 14.1665V9.1665C10.8337 8.94549 10.9215 8.73353 11.0777 8.57725C11.234 8.42097 11.446 8.33317 11.667 8.33317Z" fill="#616161"/>
</g>
</svg>
