<svg width="20" height="20" viewBox="0 0 20 20" fill="none" xmlns="http://www.w3.org/2000/svg">
<g id="uil:map-marker">
<path id="Vector" d="M9.99967 1.6665C8.23156 1.6665 6.53587 2.36888 5.28563 3.61913C4.03539 4.86937 3.33301 6.56506 3.33301 8.33317C3.33301 12.8332 9.20801 17.9165 9.45801 18.1332C9.60895 18.2623 9.80105 18.3332 9.99967 18.3332C10.1983 18.3332 10.3904 18.2623 10.5413 18.1332C10.833 17.9165 16.6663 12.8332 16.6663 8.33317C16.6663 6.56506 15.964 4.86937 14.7137 3.61913C13.4635 2.36888 11.7678 1.6665 9.99967 1.6665ZM9.99967 16.3748C8.22467 14.7082 4.99967 11.1165 4.99967 8.33317C4.99967 7.00709 5.52646 5.73532 6.46414 4.79764C7.40182 3.85996 8.67359 3.33317 9.99967 3.33317C11.3258 3.33317 12.5975 3.85996 13.5352 4.79764C14.4729 5.73532 14.9997 7.00709 14.9997 8.33317C14.9997 11.1165 11.7747 14.7165 9.99967 16.3748ZM9.99967 4.99984C9.3404 4.99984 8.69594 5.19533 8.14777 5.56161C7.59961 5.92788 7.17237 6.44847 6.92008 7.05756C6.66778 7.66665 6.60177 8.33687 6.73039 8.98347C6.85901 9.63008 7.17648 10.224 7.64265 10.6902C8.10883 11.1564 8.70277 11.4738 9.34937 11.6025C9.99598 11.7311 10.6662 11.6651 11.2753 11.4128C11.8844 11.1605 12.405 10.7332 12.7712 10.1851C13.1375 9.63691 13.333 8.99244 13.333 8.33317C13.333 7.44912 12.9818 6.60127 12.3567 5.97615C11.7316 5.35103 10.8837 4.99984 9.99967 4.99984ZM9.99967 9.99984C9.67004 9.99984 9.34781 9.90209 9.07372 9.71895C8.79964 9.53582 8.58602 9.27552 8.45988 8.97098C8.33373 8.66643 8.30072 8.33132 8.36503 8.00802C8.42934 7.68472 8.58808 7.38775 8.82116 7.15466C9.05425 6.92157 9.35122 6.76284 9.67452 6.69853C9.99783 6.63422 10.3329 6.66723 10.6375 6.79337C10.942 6.91952 11.2023 7.13314 11.3855 7.40722C11.5686 7.6813 11.6663 8.00354 11.6663 8.33317C11.6663 8.7752 11.4907 9.19912 11.1782 9.51168C10.8656 9.82424 10.4417 9.99984 9.99967 9.99984Z" fill="#6A0104"/>
</g>
</svg>
