<svg xmlns="http://www.w3.org/2000/svg" width="20" height="20" viewBox="0 0 20 20" fill="none">
  <path
    d="M5.83341 3.33317C5.83341 2.89114 6.00901 2.46722 6.32157 2.15466C6.63413 1.8421 7.05805 1.6665 7.50008 1.6665H12.5001C12.9421 1.6665 13.366 1.8421 13.6786 2.15466C13.9912 2.46722 14.1667 2.89114 14.1667 3.33317V4.99984H17.5001C17.7211 4.99984 17.9331 5.08763 18.0893 5.24392C18.2456 5.4002 18.3334 5.61216 18.3334 5.83317C18.3334 6.05418 18.2456 6.26615 18.0893 6.42243C17.9331 6.57871 17.7211 6.6665 17.5001 6.6665H16.6092L15.8867 16.7848C15.8568 17.2053 15.6687 17.5988 15.3602 17.8861C15.0517 18.1734 14.6458 18.3332 14.2242 18.3332H5.77508C5.35353 18.3332 4.94764 18.1734 4.63915 17.8861C4.33067 17.5988 4.14251 17.2053 4.11258 16.7848L3.39175 6.6665H2.50008C2.27907 6.6665 2.06711 6.57871 1.91083 6.42243C1.75455 6.26615 1.66675 6.05418 1.66675 5.83317C1.66675 5.61216 1.75455 5.4002 1.91083 5.24392C2.06711 5.08763 2.27907 4.99984 2.50008 4.99984H5.83341V3.33317ZM7.50008 4.99984H12.5001V3.33317H7.50008V4.99984ZM5.06175 6.6665L5.77591 16.6665H14.2251L14.9392 6.6665H5.06175ZM8.33341 8.33317C8.55443 8.33317 8.76639 8.42097 8.92267 8.57725C9.07895 8.73353 9.16675 8.94549 9.16675 9.1665V14.1665C9.16675 14.3875 9.07895 14.5995 8.92267 14.7558C8.76639 14.912 8.55443 14.9998 8.33341 14.9998C8.1124 14.9998 7.90044 14.912 7.74416 14.7558C7.58788 14.5995 7.50008 14.3875 7.50008 14.1665V9.1665C7.50008 8.94549 7.58788 8.73353 7.74416 8.57725C7.90044 8.42097 8.1124 8.33317 8.33341 8.33317ZM11.6667 8.33317C11.8878 8.33317 12.0997 8.42097 12.256 8.57725C12.4123 8.73353 12.5001 8.94549 12.5001 9.1665V14.1665C12.5001 14.3875 12.4123 14.5995 12.256 14.7558C12.0997 14.912 11.8878 14.9998 11.6667 14.9998C11.4457 14.9998 11.2338 14.912 11.0775 14.7558C10.9212 14.5995 10.8334 14.3875 10.8334 14.1665V9.1665C10.8334 8.94549 10.9212 8.73353 11.0775 8.57725C11.2338 8.42097 11.4457 8.33317 11.6667 8.33317Z"
    fill="#616161" />
</svg>