<svg xmlns="http://www.w3.org/2000/svg" width="186" height="186" viewBox="0 0 186 186" fill="none">
  <path
    d="M62 93.4031C77.4612 93.4031 89.125 81.7393 89.125 66.2781C89.125 50.8168 77.4612 39.1531 62 39.1531C46.5387 39.1531 34.875 50.8168 34.875 66.2781C34.875 81.7393 46.5387 93.4031 62 93.4031ZM69.75 100.75H54.25C32.8832 100.75 15.5 118.133 15.5 139.5V147.25H108.5V139.5C108.5 118.133 91.1167 100.75 69.75 100.75ZM157.271 64.2708L139.5 82.0416L121.729 64.2708L110.771 75.2293L128.534 92.9923L110.763 110.763L121.721 121.722L139.492 103.951L157.271 121.729L168.229 110.771L150.458 93.0001L168.229 75.2293L157.271 64.2708Z"
    fill="#6A0104" />
</svg>