<svg xmlns="http://www.w3.org/2000/svg" width="20" height="20" viewBox="0 0 20 20" fill="none">
  <path
    d="M17.4049 2.60002C17.1087 2.30375 16.757 2.06874 16.3699 1.9084C15.9829 1.74805 15.568 1.66553 15.1491 1.66553C14.7301 1.66553 14.3153 1.74805 13.9282 1.9084C13.5411 2.06874 13.1895 2.30375 12.8932 2.60002L11.9766 3.51835C11.9307 3.55495 11.8888 3.59629 11.8516 3.64169L2.75157 12.7434C2.63522 12.8594 2.55578 13.0073 2.52324 13.1684L1.68324 17.335C1.65584 17.4697 1.66216 17.609 1.70165 17.7407C1.74114 17.8723 1.81257 17.9921 1.90958 18.0895C2.00659 18.1868 2.12617 18.2586 2.25766 18.2986C2.38915 18.3385 2.52848 18.3453 2.66324 18.3184L6.83657 17.485C6.99766 17.4525 7.14552 17.373 7.26157 17.2567L17.4049 7.11335C17.7012 6.81713 17.9362 6.46544 18.0965 6.07839C18.2569 5.69133 18.3394 5.27647 18.3394 4.85752C18.3394 4.43856 18.2569 4.02371 18.0965 3.63665C17.9362 3.24959 17.7012 2.89791 17.4049 2.60169M12.5032 5.35002L14.6582 7.50502L6.26157 15.9L3.56491 16.44L4.10657 13.7467L12.5032 5.35002ZM15.8366 6.32669L13.6816 4.17002L14.0716 3.78002C14.2123 3.63575 14.3804 3.52086 14.5659 3.44199C14.7514 3.36313 14.9507 3.32186 15.1522 3.32059C15.3538 3.31932 15.5536 3.35806 15.7401 3.43457C15.9266 3.51108 16.096 3.62384 16.2386 3.76632C16.3812 3.90879 16.4941 4.07815 16.5707 4.26457C16.6474 4.451 16.6863 4.65078 16.6852 4.85235C16.684 5.05391 16.6429 5.25325 16.5642 5.43881C16.4855 5.62437 16.3707 5.79247 16.2266 5.93335L15.8366 6.32669Z"
    fill="#616161" />
</svg>