<svg xmlns="http://www.w3.org/2000/svg" width="20" height="20" viewBox="0 0 20 20" fill="none">
  <path
    d="M10.0002 1.6665C8.23205 1.6665 6.53636 2.36888 5.28612 3.61913C4.03588 4.86937 3.3335 6.56506 3.3335 8.33317C3.3335 12.8332 9.2085 17.9165 9.4585 18.1332C9.60944 18.2623 9.80154 18.3332 10.0002 18.3332C10.1988 18.3332 10.3909 18.2623 10.5418 18.1332C10.8335 17.9165 16.6668 12.8332 16.6668 8.33317C16.6668 6.56506 15.9645 4.86937 14.7142 3.61913C13.464 2.36888 11.7683 1.6665 10.0002 1.6665ZM10.0002 16.3748C8.22516 14.7082 5.00016 11.1165 5.00016 8.33317C5.00016 7.00709 5.52695 5.73532 6.46463 4.79764C7.40231 3.85996 8.67408 3.33317 10.0002 3.33317C11.3262 3.33317 12.598 3.85996 13.5357 4.79764C14.4734 5.73532 15.0002 7.00709 15.0002 8.33317C15.0002 11.1165 11.7752 14.7165 10.0002 16.3748ZM10.0002 4.99984C9.34089 4.99984 8.69643 5.19533 8.14826 5.56161C7.6001 5.92788 7.17286 6.44847 6.92056 7.05756C6.66827 7.66665 6.60226 8.33687 6.73088 8.98347C6.8595 9.63008 7.17696 10.224 7.64314 10.6902C8.10931 11.1564 8.70326 11.4738 9.34986 11.6025C9.99646 11.7311 10.6667 11.6651 11.2758 11.4128C11.8849 11.1605 12.4055 10.7332 12.7717 10.1851C13.138 9.63691 13.3335 8.99244 13.3335 8.33317C13.3335 7.44912 12.9823 6.60127 12.3572 5.97615C11.7321 5.35103 10.8842 4.99984 10.0002 4.99984ZM10.0002 9.99984C9.67053 9.99984 9.34829 9.90209 9.07421 9.71895C8.80013 9.53582 8.58651 9.27552 8.46036 8.97098C8.33422 8.66643 8.30121 8.33132 8.36552 8.00802C8.42983 7.68472 8.58856 7.38775 8.82165 7.15466C9.05474 6.92157 9.35171 6.76284 9.67501 6.69853C9.99831 6.63422 10.3334 6.66723 10.638 6.79337C10.9425 6.91952 11.2028 7.13314 11.3859 7.40722C11.5691 7.6813 11.6668 8.00354 11.6668 8.33317C11.6668 8.7752 11.4912 9.19912 11.1787 9.51168C10.8661 9.82424 10.4422 9.99984 10.0002 9.99984Z"
    fill="#406A10" />
</svg>