<svg width="23" height="34" viewBox="0 0 23 34" fill="none" xmlns="http://www.w3.org/2000/svg">
  <path id="Vector"
    d="M22.0487 11.4068C22.0487 5.19684 17.2934 0.145508 11.4467 0.145508C5.60006 0.145508 0.844727 5.19684 0.844727 11.4095C0.84606 11.7195 0.993394 19.1488 9.48473 32.2395C9.65945 32.5987 9.92443 32.9063 10.2537 33.1323C10.5831 33.3583 10.9654 33.495 11.3634 33.5288C12.5901 33.5288 13.4261 32.1782 13.5074 32.0408C22.0534 18.9428 22.0534 11.7022 22.0487 11.4068ZM11.4467 15.9428C10.5128 15.9428 9.59985 15.6659 8.82333 15.147C8.0468 14.6282 7.44156 13.8907 7.08417 13.0279C6.72677 12.165 6.63326 11.2156 6.81546 10.2996C6.99766 9.38365 7.44738 8.54227 8.10777 7.88188C8.76815 7.2215 9.60953 6.77177 10.5255 6.58957C11.4415 6.40737 12.3909 6.50088 13.2538 6.85828C14.1166 7.21568 14.8541 7.82091 15.3729 8.59744C15.8918 9.37397 16.1687 10.2869 16.1687 11.2208C16.1675 12.4728 15.6696 13.6732 14.7843 14.5584C13.899 15.4437 12.6987 15.9416 11.4467 15.9428Z"
    fill="#F64C44" />
</svg>
  