<svg xmlns="http://www.w3.org/2000/svg" width="19" height="19" viewBox="0 0 19 19" fill="none">
  <path
    d="M6.44646 9.50021C6.84746 9.50021 7.24454 9.42123 7.61502 9.26777C7.98549 9.11431 8.32211 8.88939 8.60566 8.60584C8.88921 8.32229 9.11414 7.98567 9.2676 7.61519C9.42105 7.24471 9.50004 6.84764 9.50004 6.44664C9.50004 6.04564 9.42105 5.64856 9.2676 5.27809C9.11414 4.90761 8.88921 4.57099 8.60566 4.28744C8.32211 4.00389 7.98549 3.77896 7.61502 3.62551C7.24454 3.47205 6.84746 3.39307 6.44646 3.39307C5.63661 3.39307 4.85992 3.71478 4.28726 4.28744C3.71461 4.86009 3.39289 5.63678 3.39289 6.44664C3.39289 7.2565 3.71461 8.03318 4.28726 8.60584C4.85992 9.17849 5.63661 9.50021 6.44646 9.50021ZM11.6036 14.6702C12.1214 14.8297 12.7667 14.9288 13.5715 14.9288C17.6429 14.9288 17.6429 12.3841 17.6429 12.3841C17.6429 11.9792 17.482 11.5909 17.1957 11.3045C16.9094 11.0182 16.521 10.8574 16.1161 10.8574H11.5995C11.9939 11.2677 12.2138 11.815 12.213 12.3841V12.7607L12.2109 12.8171C12.1966 13.0437 12.1616 13.2686 12.1064 13.4889C12.0014 13.9061 11.832 14.3045 11.6043 14.6696M15.9465 7.12521C15.9465 7.4371 15.885 7.74593 15.7657 8.03408C15.6463 8.32223 15.4714 8.58405 15.2508 8.80459C15.0303 9.02513 14.7685 9.20007 14.4803 9.31942C14.1922 9.43878 13.8834 9.50021 13.5715 9.50021C13.2596 9.50021 12.9507 9.43878 12.6626 9.31942C12.3744 9.20007 12.1126 9.02513 11.8921 8.80459C11.6715 8.58405 11.4966 8.32223 11.3773 8.03408C11.2579 7.74593 11.1965 7.4371 11.1965 7.12521C11.1965 6.49532 11.4467 5.89123 11.8921 5.44583C12.3375 5.00043 12.9416 4.75021 13.5715 4.75021C14.2014 4.75021 14.8054 5.00043 15.2508 5.44583C15.6962 5.89123 15.9465 6.49532 15.9465 7.12521ZM1.35718 12.3841C1.35718 11.9792 1.51804 11.5909 1.80436 11.3045C2.09069 11.0182 2.47903 10.8574 2.88396 10.8574H10.009C10.4139 10.8574 10.8022 11.0182 11.0886 11.3045C11.3749 11.5909 11.5357 11.9792 11.5357 12.3841V12.7234C11.5357 12.7234 11.5357 16.2859 6.44646 16.2859C1.35718 16.2859 1.35718 12.7234 1.35718 12.7234V12.3841Z"
    fill="#757575" />
</svg>