<svg xmlns="http://www.w3.org/2000/svg" width="20" height="20" viewBox="0 0 20 20" fill="none">
  <path
    d="M9.99992 1.6665C8.23181 1.6665 6.53612 2.36888 5.28587 3.61913C4.03563 4.86937 3.33325 6.56506 3.33325 8.33317C3.33325 12.8332 9.20825 17.9165 9.45825 18.1332C9.6092 18.2623 9.80129 18.3332 9.99992 18.3332C10.1985 18.3332 10.3906 18.2623 10.5416 18.1332C10.8333 17.9165 16.6666 12.8332 16.6666 8.33317C16.6666 6.56506 15.9642 4.86937 14.714 3.61913C13.4637 2.36888 11.768 1.6665 9.99992 1.6665ZM9.99992 16.3748C8.22492 14.7082 4.99992 11.1165 4.99992 8.33317C4.99992 7.00709 5.5267 5.73532 6.46438 4.79764C7.40207 3.85996 8.67384 3.33317 9.99992 3.33317C11.326 3.33317 12.5978 3.85996 13.5355 4.79764C14.4731 5.73532 14.9999 7.00709 14.9999 8.33317C14.9999 11.1165 11.7749 14.7165 9.99992 16.3748ZM9.99992 4.99984C9.34065 4.99984 8.69618 5.19533 8.14802 5.56161C7.59985 5.92788 7.17261 6.44847 6.92032 7.05756C6.66803 7.66665 6.60202 8.33687 6.73063 8.98347C6.85925 9.63008 7.17672 10.224 7.6429 10.6902C8.10907 11.1564 8.70301 11.4738 9.34962 11.6025C9.99622 11.7311 10.6664 11.6651 11.2755 11.4128C11.8846 11.1605 12.4052 10.7332 12.7715 10.1851C13.1378 9.63691 13.3333 8.99244 13.3333 8.33317C13.3333 7.44912 12.9821 6.60127 12.3569 5.97615C11.7318 5.35103 10.884 4.99984 9.99992 4.99984ZM9.99992 9.99984C9.67028 9.99984 9.34805 9.90209 9.07397 9.71895C8.79989 9.53582 8.58627 9.27552 8.46012 8.97098C8.33397 8.66643 8.30097 8.33132 8.36528 8.00802C8.42958 7.68472 8.58832 7.38775 8.82141 7.15466C9.05449 6.92157 9.35147 6.76284 9.67477 6.69853C9.99807 6.63422 10.3332 6.66723 10.6377 6.79337C10.9423 6.91952 11.2026 7.13314 11.3857 7.40722C11.5688 7.6813 11.6666 8.00354 11.6666 8.33317C11.6666 8.7752 11.491 9.19912 11.1784 9.51168C10.8659 9.82424 10.4419 9.99984 9.99992 9.99984Z"
    fill="#6A0104" />
</svg>