<svg xmlns="http://www.w3.org/2000/svg" width="31" height="31" viewBox="0 0 31 31" fill="none">
<path d="M14.0966 16.9017C13.8497 16.6553 13.5555 16.4614 13.2317 16.3318L2.98883 12.2243C2.86653 12.1752 2.76217 12.0899 2.68975 11.9798C2.61734 11.8697 2.58033 11.7401 2.58371 11.6084C2.58708 11.4767 2.63067 11.3491 2.70863 11.2429C2.78659 11.1366 2.89518 11.0568 3.01983 11.014L27.5615 2.61818C27.6759 2.57684 27.7998 2.56895 27.9186 2.59544C28.0373 2.62192 28.1461 2.68168 28.2322 2.76773C28.3182 2.85377 28.378 2.96254 28.4044 3.08131C28.4309 3.20008 28.423 3.32394 28.3817 3.43839L19.9859 27.9801C19.9431 28.1047 19.8633 28.2133 19.757 28.2913C19.6508 28.3692 19.5232 28.4128 19.3915 28.4162C19.2598 28.4195 19.1302 28.3825 19.0201 28.3101C18.91 28.2377 18.8247 28.1334 18.7756 28.0111L14.6681 17.7656C14.5379 17.442 14.3435 17.1481 14.0966 16.9017ZM14.0966 16.9017L28.228 2.77318" stroke="black" stroke-width="2" stroke-linecap="round" stroke-linejoin="round"/>
</svg>