<svg xmlns="http://www.w3.org/2000/svg" width="11" height="11" viewBox="0 0 11 11" fill="none">
  <g clip-path="url(#clip0_247_2016)">
    <path fill-rule="evenodd" clip-rule="evenodd"
      d="M1.36283 0.371407C1.22811 0.241294 1.04768 0.169298 0.860399 0.170925C0.673116 0.172553 0.493964 0.247674 0.36153 0.380108C0.229095 0.512542 0.153975 0.691694 0.152347 0.878977C0.15072 1.06626 0.222716 1.24669 0.352829 1.38141L4.13354 5.16212L0.352829 8.94284C0.284607 9.00873 0.230191 9.08754 0.192756 9.17469C0.155321 9.26184 0.135617 9.35556 0.134793 9.45041C0.133968 9.54525 0.152041 9.63931 0.187956 9.72709C0.223871 9.81487 0.276909 9.89462 0.343975 9.96169C0.411041 10.0288 0.490793 10.0818 0.578576 10.1177C0.666359 10.1536 0.760416 10.1717 0.855258 10.1709C0.9501 10.17 1.04383 10.1503 1.13097 10.1129C1.21812 10.0755 1.29694 10.0211 1.36283 9.95284L5.14354 6.17212L8.92426 9.95284C9.05897 10.0829 9.2394 10.1549 9.42669 10.1533C9.61397 10.1517 9.79312 10.0766 9.92556 9.94413C10.058 9.8117 10.1331 9.63255 10.1347 9.44526C10.1364 9.25798 10.0644 9.07755 9.93426 8.94284L6.15354 5.16212L9.93426 1.38141C10.0644 1.24669 10.1364 1.06626 10.1347 0.878977C10.1331 0.691694 10.058 0.512542 9.92556 0.380108C9.79312 0.247674 9.61397 0.172553 9.42669 0.170925C9.2394 0.169298 9.05897 0.241294 8.92426 0.371407L5.14354 4.15212L1.36283 0.371407Z"
      fill="#616161" />
  </g>
  <defs>
    <clipPath id="clip0_247_2016">
      <rect width="10" height="10" fill="white" transform="translate(0.142578 0.162109)" />
    </clipPath>
  </defs>
</svg>